<?xml version="1.0" encoding="iso-8859-1"?>
<!-- Uploaded to: SVG Repo, www.svgrepo.com, Generator: SVG Repo Mixer Tools -->
<svg fill="#000000" height="800px" width="800px" version="1.1" id="Capa_1" xmlns="http://www.w3.org/2000/svg" xmlns:xlink="http://www.w3.org/1999/xlink" 
	 viewBox="0 0 487.2 487.2" xml:space="preserve">
<g>
	<path d="M448,77.3H39.2C17.6,77.3,0,94.9,0,116.5v254.2c0,21.6,17.6,39.2,39.2,39.2H448c21.6,0,39.2-17.6,39.2-39.2V116.5
		C487.2,94.9,469.6,77.3,448,77.3z M450.4,370.7c0,1.3-1.1,2.4-2.4,2.4H39.2c-1.3,0-2.4-1.1-2.4-2.4V148.1h413.5v222.6H450.4z
		 M187.6,207.9v-15.5c0-2.7,2.2-4.8,4.8-4.8h201.5c2.7,0,4.8,2.2,4.8,4.8v15.5c0,2.7-2.2,4.8-4.8,4.8H192.4
		C189.7,212.8,187.6,210.6,187.6,207.9z M187.6,249.8v-15.5c0-2.7,2.2-4.8,4.8-4.8h142.2c2.7,0,4.8,2.2,4.8,4.8v15.5
		c0,2.7-2.2,4.8-4.8,4.8H192.4C189.7,254.6,187.6,252.4,187.6,249.8z M187.6,291.6v-15.5c0-2.7,2.2-4.8,4.8-4.8h201.5
		c2.7,0,4.8,2.2,4.8,4.8v15.5c0,2.7-2.2,4.8-4.8,4.8H192.4C189.7,296.4,187.6,294.3,187.6,291.6z M187.6,333.4v-15.5
		c0-2.7,2.2-4.8,4.8-4.8H222h20.6h57.5c2.7,0,4.8,2.2,4.8,4.8v15.5c0,2.7-2.2,4.8-4.8,4.8h-57.5H222h-29.6
		C189.7,338.2,187.6,336.1,187.6,333.4z M54.6,271.3v-8.8c0-2.2,1.8-4,3.9-4h10.8c0-2.4,0-4.7,0-7.2H58.6c-2.2,0-3.9-1.8-3.9-4v-8.7
		c0-2.2,1.8-4,3.9-4h13.7l0.5-1.4c3.7-11.8,10.1-21.8,19.8-29.4c7.8-6,16.7-9.4,26.4-10.9c13.7-2.2,26.9-0.3,39.8,4.7
		c0.8,0.3,1.6,0.7,2.4,1.2c3.1,1.8,3.9,4.1,2.5,7.4c-1.4,3.5-2.9,7-4.5,10.4c-1.4,3-3.2,3.9-6.4,3.2c-4.3-1-8.6-2.3-13-3.2
		c-9.2-1.9-18.3-2-27.2,1.6c-7.7,3-12.3,8.9-15.5,16.2c0,0.1,0,0.2,0,0.3h26.7c2.2,0,3.9,1.8,3.9,4v8.8c0,2.2-1.8,4-3.9,4H93.3
		c0,2.3,0,4.7,0,7.2h30.5c2.2,0,3.9,1.8,3.9,4v8.8c0,2.2-1.8,4-3.9,4H95.9c3.4,9.6,8.8,17.1,19.1,20.3c8.2,2.6,16.5,2.4,24.8,0.7
		c4.3-0.9,8.5-2.2,12.8-3.2c3.4-0.8,5.2,0.1,6.6,3.2c1.6,3.5,3.1,7,4.5,10.5c1.3,3.2,0.4,5.8-2.9,7.3c-3.4,1.6-7,2.8-10.6,3.8
		c-13.8,3.8-27.7,4-41.4-0.5c-16.6-5.4-27.7-16.8-34.3-32.7c-1.3-3.1-2.1-6.4-3.1-9.6H58.6C56.4,275.3,54.6,273.5,54.6,271.3z"/>
</g>
</svg>