<?xml version="1.0" encoding="iso-8859-1"?>
<!-- Uploaded to: SVG Repo, www.svgrepo.com, Generator: SVG Repo Mixer Tools -->
<svg fill="#000000" height="800px" width="800px" version="1.1" id="Layer_1" xmlns="http://www.w3.org/2000/svg" xmlns:xlink="http://www.w3.org/1999/xlink" 
	 viewBox="0 0 491.6 491.6" xml:space="preserve">
<g>
	<g>
		<path d="M471.15,0h-327.7c-11.3,0-20.5,9.2-20.5,20.5v204.8H20.55c-11.3,0-20.5,9.2-20.5,20.5v225.3c0,11.3,9.2,20.5,20.5,20.5
			h122.9h110.2c-17.2-15-28.3-36.9-28.3-61.4v-63.9c-40.4-13.3-40.5-83.2-40.5-126.8c0-38.8,40.8-65.9,72-79.9c-4-9.4-6.1-20-6.1-31
			c0-37.6,24.2-67.1,55-67.1s55,29.5,55,67.1c0,10.9-2.1,21.4-6,30.7c32.8,14,75.4,41.2,75.4,80.2c0,43.8-0.1,114-41,127v63.7
			c0,24.6-11.1,46.4-28.3,61.4h110.2c11.3,0,20.5-9.2,20.5-20.5V20.5C491.65,9.2,482.45,0,471.15,0z M122.95,450.6h-81.9v-81.9h81.9
			V450.6z M122.95,327.7h-81.9v-61.4h81.9V327.7z"/>
	</g>
</g>
</svg>